<svg width="32" height="32" viewBox="0 0 32 32" fill="none" xmlns="http://www.w3.org/2000/svg">
<path d="M24.9938 2.76352L23.5504 4.207C18.1313 0.730139 10.8397 1.36131 6.1005 6.1005C0.633165 11.5678 0.633165 20.4322 6.1005 25.8995C11.5678 31.3668 20.4322 31.3668 25.8995 25.8995C26.29 25.509 26.9232 25.509 27.3137 25.8995C27.7042 26.29 27.7042 26.9232 27.3137 27.3137C21.0653 33.5621 10.9347 33.5621 4.68629 27.3137C-1.5621 21.0653 -1.5621 10.9347 4.68629 4.68629C10.2096 -0.837039 18.7665 -1.47796 24.9938 2.76352ZM19.1243 8.63302L20.626 7.13133C16.8562 5.16356 12.0951 5.76276 8.92893 8.92893C5.02369 12.8342 5.02369 19.1658 8.92893 23.0711C12.8342 26.9763 19.1658 26.9763 23.0711 23.0711C23.4616 22.6805 23.4616 22.0474 23.0711 21.6569C22.6805 21.2663 22.0474 21.2663 21.6569 21.6569C18.5327 24.781 13.4673 24.781 10.3431 21.6569C7.21895 18.5327 7.21895 13.4673 10.3431 10.3431C12.7172 7.96912 16.212 7.39908 19.1243 8.63302ZM27.7071 4.29289C28.0976 4.68342 28.0976 5.31658 27.7071 5.70711L17.9323 15.482C17.9764 15.6472 18 15.8208 18 16C18 17.1046 17.1046 18 16 18C14.8954 18 14 17.1046 14 16C14 14.8954 14.8954 14 16 14C16.1792 14 16.3528 14.0236 16.518 14.0677L26.2929 4.29289C26.6834 3.90237 27.3166 3.90237 27.7071 4.29289ZM30 23C30 23.5523 29.5523 24 29 24C28.4477 24 28 23.5523 28 23C28 22.4477 28.4477 22 29 22C29.5523 22 30 22.4477 30 23ZM29 10C29.5523 10 30 9.55229 30 9C30 8.44771 29.5523 8 29 8C28.4477 8 28 8.44771 28 9C28 9.55229 28.4477 10 29 10ZM32 18.5C32 19.0523 31.5523 19.5 31 19.5C30.4477 19.5 30 19.0523 30 18.5C30 17.9477 30.4477 17.5 31 17.5C31.5523 17.5 32 17.9477 32 18.5ZM31 14.5C31.5523 14.5 32 14.0523 32 13.5C32 12.9477 31.5523 12.5 31 12.5C30.4477 12.5 30 12.9477 30 13.5C30 14.0523 30.4477 14.5 31 14.5ZM26 18.5C26 19.0523 25.5523 19.5 25 19.5C24.4477 19.5 24 19.0523 24 18.5C24 17.9477 24.4477 17.5 25 17.5C25.5523 17.5 26 17.9477 26 18.5ZM25 14.5C25.5523 14.5 26 14.0523 26 13.5C26 12.9477 25.5523 12.5 25 12.5C24.4477 12.5 24 12.9477 24 13.5C24 14.0523 24.4477 14.5 25 14.5Z" fill="#212121"/>
</svg>
